<svg xmlns="http://www.w3.org/2000/svg" xmlns:xlink="http://www.w3.org/1999/xlink" width="500" zoomAndPan="magnify" viewBox="0 0 375 374.999991" height="500" preserveAspectRatio="xMidYMid meet" version="1.0"><defs><g/><clipPath id="c93c3b3bd6"><path d="M 52.71875 142.667969 L 130.71875 142.667969 L 130.71875 220.667969 L 52.71875 220.667969 Z M 52.71875 142.667969 " clip-rule="nonzero"/></clipPath></defs><g clip-path="url(#c93c3b3bd6)"><path fill="#1e98d7" d="M 130.71875 181.667969 C 130.71875 203.207031 113.257812 220.667969 91.71875 220.667969 C 70.179688 220.667969 52.71875 203.207031 52.71875 181.667969 C 52.71875 160.128906 70.179688 142.667969 91.71875 142.667969 C 113.257812 142.667969 130.71875 160.128906 130.71875 181.667969 " fill-opacity="1" fill-rule="nonzero"/></g><g fill="#ffffff" fill-opacity="1"><g transform="translate(68.362645, 219.749986)"><g><path d="M 41.890625 0 L 32.734375 0 L 32.203125 -0.703125 C 29.148438 0.347656 26.507812 0.875 24.28125 0.875 C 19.125 0.875 14.738281 -0.585938 11.125 -3.515625 C 7.519531 -6.453125 5.71875 -10.820312 5.71875 -16.625 L 5.71875 -44.265625 C 5.71875 -51.773438 8.269531 -57.082031 13.375 -60.1875 C 16.019531 -61.65625 19.160156 -62.390625 22.796875 -62.390625 C 23.140625 -62.390625 23.519531 -62.390625 23.9375 -62.390625 C 28.039062 -62.210938 31.820312 -61.242188 35.28125 -59.484375 L 32.390625 -50.78125 C 29.566406 -51.832031 26.894531 -52.359375 24.375 -52.359375 C 21.5625 -52.359375 19.363281 -51.84375 17.78125 -50.8125 C 16.195312 -49.789062 15.40625 -47.875 15.40625 -45.0625 L 15.40625 -16.453125 C 15.40625 -13.640625 16.148438 -11.675781 17.640625 -10.5625 C 19.140625 -9.445312 21.328125 -8.890625 24.203125 -8.890625 C 29.535156 -8.890625 32.203125 -11.382812 32.203125 -16.375 L 32.203125 -17.15625 L 27.1875 -17.15625 L 24.109375 -26.40625 L 41.890625 -26.40625 Z M 41.890625 0 "/></g></g></g><g fill="#000000" fill-opacity="1"><g transform="translate(143.57579, 200.046042)"><g><path d="M 18.625 15.21875 L 16.75 8.984375 C 18.394531 8.984375 19.6875 8.507812 20.625 7.5625 C 21.570312 6.625 22.046875 5.210938 22.046875 3.328125 L 22.046875 -0.578125 C 20.734375 0.390625 18.773438 0.875 16.171875 0.875 C 11.910156 0.875 8.597656 -0.285156 6.234375 -2.609375 C 3.867188 -4.929688 2.6875 -8.316406 2.6875 -12.765625 L 2.6875 -23.5625 C 2.6875 -27.8125 3.929688 -31.109375 6.421875 -33.453125 C 8.910156 -35.796875 12.253906 -36.96875 16.453125 -36.96875 C 17.804688 -36.96875 19.015625 -36.8125 20.078125 -36.5 C 21.140625 -36.1875 21.816406 -35.863281 22.109375 -35.53125 L 23.640625 -36.328125 L 30.015625 -36.328125 L 30.015625 4.640625 C 30.015625 11.691406 26.21875 15.21875 18.625 15.21875 Z M 22.046875 -16.75 L 22.046875 -22.84375 C 22.046875 -27 20.085938 -29.078125 16.171875 -29.078125 C 14.179688 -29.078125 12.765625 -28.507812 11.921875 -27.375 C 11.078125 -26.238281 10.65625 -24.847656 10.65625 -23.203125 L 10.65625 -13.84375 C 10.65625 -9.15625 12.492188 -6.8125 16.171875 -6.8125 C 18.535156 -6.8125 20.101562 -7.582031 20.875 -9.125 C 21.65625 -10.675781 22.046875 -13.21875 22.046875 -16.75 Z M 22.046875 -16.75 "/></g></g></g><g fill="#000000" fill-opacity="1"><g transform="translate(174.604135, 200.046042)"><g><path d="M 29.65625 0 L 22.1875 0 L 21.671875 -0.4375 C 19.503906 0.382812 17.691406 0.796875 16.234375 0.796875 C 7.148438 0.796875 2.609375 -3.625 2.609375 -12.46875 L 2.609375 -36.328125 L 10.578125 -36.328125 L 10.578125 -13.625 C 10.578125 -11.40625 10.976562 -9.765625 11.78125 -8.703125 C 12.582031 -7.640625 14.066406 -7.109375 16.234375 -7.109375 C 18.410156 -7.109375 19.859375 -7.695312 20.578125 -8.875 C 21.304688 -10.0625 21.671875 -11.742188 21.671875 -13.921875 L 21.671875 -36.328125 L 29.65625 -36.328125 Z M 29.65625 0 "/></g></g></g><g fill="#000000" fill-opacity="1"><g transform="translate(205.560025, 200.046042)"><g><path d="M 20.15625 15.21875 L 17.03125 8.921875 C 18.289062 8.921875 19.414062 8.53125 20.40625 7.75 C 21.394531 6.976562 21.890625 5.75 21.890625 4.0625 L 21.890625 -0.140625 C 19.710938 0.535156 17.734375 0.875 15.953125 0.875 C 11.691406 0.875 8.414062 -0.269531 6.125 -2.5625 C 3.832031 -4.863281 2.6875 -8.265625 2.6875 -12.765625 L 2.6875 -36.328125 L 10.65625 -36.328125 L 10.65625 -14.9375 C 10.65625 -11.894531 11.050781 -9.828125 11.84375 -8.734375 C 12.644531 -7.648438 14.015625 -7.109375 15.953125 -7.109375 C 18.078125 -7.109375 19.597656 -7.625 20.515625 -8.65625 C 21.429688 -9.695312 21.890625 -11.789062 21.890625 -14.9375 L 21.890625 -26.3125 C 21.890625 -28.875 22.769531 -31.226562 24.53125 -33.375 C 26.300781 -35.53125 28.539062 -36.726562 31.25 -36.96875 L 34.21875 -30.453125 C 32.820312 -30.109375 31.75 -29.441406 31 -28.453125 C 30.25 -27.460938 29.875 -26.363281 29.875 -25.15625 L 29.875 4.421875 C 29.875 7.566406 29.132812 10.046875 27.65625 11.859375 C 26.1875 13.671875 23.6875 14.789062 20.15625 15.21875 Z M 20.15625 15.21875 "/></g></g></g><g fill="#000000" fill-opacity="1"><g transform="translate(240.79311, 200.046042)"><g><path d="M 8.84375 -42.703125 L 4.34375 -42.703125 L 3.328125 -50.390625 C 3.328125 -51.597656 3.863281 -52.488281 4.9375 -53.0625 C 5.507812 -53.351562 6.085938 -53.5 6.671875 -53.5 L 8.265625 -53.0625 C 9.328125 -52.582031 9.859375 -51.691406 9.859375 -50.390625 Z M 8.84375 -42.703125 "/></g></g></g><g fill="#000000" fill-opacity="1"><g transform="translate(251.95751, 200.046042)"><g><path d="M 2.609375 -9.203125 L 10.578125 -10 C 10.578125 -9.132812 11.023438 -8.3125 11.921875 -7.53125 C 12.816406 -6.757812 14.179688 -6.375 16.015625 -6.375 C 17.617188 -6.375 18.851562 -6.769531 19.71875 -7.5625 C 20.59375 -8.363281 21.03125 -9.300781 21.03125 -10.375 C 21.03125 -11.769531 20.460938 -12.890625 19.328125 -13.734375 C 18.191406 -14.578125 16.800781 -15.253906 15.15625 -15.765625 C 13.507812 -16.273438 11.851562 -16.851562 10.1875 -17.5 C 8.519531 -18.15625 7.046875 -19.234375 5.765625 -20.734375 C 4.484375 -22.234375 3.722656 -24.144531 3.484375 -26.46875 C 3.429688 -26.75 3.40625 -27.035156 3.40625 -27.328125 C 3.40625 -29.703125 4.347656 -31.878906 6.234375 -33.859375 C 8.265625 -36.078125 11.476562 -37.1875 15.875 -37.1875 C 17.425781 -37.1875 18.875 -37.003906 20.21875 -36.640625 C 21.570312 -36.285156 22.539062 -35.9375 23.125 -35.59375 L 24 -35.09375 L 21.671875 -27.6875 C 20.566406 -28.800781 18.632812 -29.359375 15.875 -29.359375 C 14.519531 -29.359375 13.515625 -29.164062 12.859375 -28.78125 C 12.210938 -28.394531 11.925781 -27.972656 12 -27.515625 C 12.070312 -27.054688 12.109375 -26.65625 12.109375 -26.3125 C 12.253906 -25.59375 12.96875 -24.929688 14.25 -24.328125 C 15.53125 -23.722656 16.988281 -23.128906 18.625 -22.546875 C 20.269531 -21.960938 21.914062 -21.234375 23.5625 -20.359375 C 25.207031 -19.492188 26.597656 -18.191406 27.734375 -16.453125 C 28.867188 -14.710938 29.4375 -12.632812 29.4375 -10.21875 C 29.4375 -7.082031 28.300781 -4.410156 26.03125 -2.203125 C 23.757812 -0.00390625 20.421875 1.09375 16.015625 1.09375 C 11.910156 1.09375 8.671875 0.101562 6.296875 -1.875 C 3.929688 -3.863281 2.703125 -6.304688 2.609375 -9.203125 Z M 2.609375 -9.203125 "/></g></g></g></svg>